<?xml version="1.0" encoding="UTF-8" standalone="no"?>
<!-- Created with Inkscape (http://www.inkscape.org/) -->

<svg
   width="107.78871mm"
   height="103.10434mm"
   viewBox="0 0 107.78871 103.10434"
   version="1.1"
   id="svg1"
   xml:space="preserve"
   sodipodi:docname="logo.svg"
   inkscape:version="1.3.2 (091e20e, 2023-11-25)"
   xmlns:inkscape="http://www.inkscape.org/namespaces/inkscape"
   xmlns:sodipodi="http://sodipodi.sourceforge.net/DTD/sodipodi-0.dtd"
   xmlns:xlink="http://www.w3.org/1999/xlink"
   xmlns="http://www.w3.org/2000/svg"
   xmlns:svg="http://www.w3.org/2000/svg"><sodipodi:namedview
     id="namedview1"
     pagecolor="#ffffff"
     bordercolor="#000000"
     borderopacity="0.25"
     inkscape:showpageshadow="2"
     inkscape:pageopacity="0.0"
     inkscape:pagecheckerboard="0"
     inkscape:deskcolor="#d1d1d1"
     inkscape:document-units="mm"
     inkscape:zoom="0.60561628"
     inkscape:cx="203.9245"
     inkscape:cy="194.01724"
     inkscape:window-width="1440"
     inkscape:window-height="760"
     inkscape:window-x="0"
     inkscape:window-y="191"
     inkscape:window-maximized="0"
     inkscape:current-layer="svg1" /><defs
     id="defs1"><linearGradient
       id="linearGradient32"><stop
         style="stop-color:#f16161;stop-opacity:1;"
         offset="0"
         id="stop9" /></linearGradient><linearGradient
       id="linearGradient31"><stop
         style="stop-color:#e30256;stop-opacity:1;"
         offset="0"
         id="stop21" /></linearGradient><linearGradient
       id="linearGradient20"><stop
         style="stop-color:#ffffff;stop-opacity:1;"
         offset="0"
         id="stop8" /></linearGradient><linearGradient
       id="swatch18"><stop
         style="stop-color:#ffffff;stop-opacity:1;"
         offset="0"
         id="stop18" /></linearGradient><linearGradient
       id="swatch7"><stop
         style="stop-color:#ffffff;stop-opacity:1;"
         offset="0"
         id="stop7" /></linearGradient><linearGradient
       id="swatch6"><stop
         style="stop-color:#ffffff;stop-opacity:1;"
         offset="0"
         id="stop6" /></linearGradient><linearGradient
       id="swatch5"><stop
         style="stop-color:#ffffff;stop-opacity:1;"
         offset="0"
         id="stop5" /></linearGradient><linearGradient
       id="swatch4"><stop
         style="stop-color:#ffffff;stop-opacity:1;"
         offset="0"
         id="stop4" /></linearGradient><linearGradient
       id="swatch20"
       inkscape:swatch="solid"><stop
         style="stop-color:#f16161;stop-opacity:1;"
         offset="0"
         id="stop20" /></linearGradient><linearGradient
       id="swatch14"><stop
         style="stop-color:#000000;stop-opacity:1;"
         offset="0"
         id="stop14" /></linearGradient><linearGradient
       id="swatch13"><stop
         style="stop-color:#05a5e3;stop-opacity:1;"
         offset="0"
         id="stop13" /></linearGradient><linearGradient
       id="linearGradient3"><stop
         style="stop-color:#ffffff;stop-opacity:1;"
         offset="0"
         id="stop3" /></linearGradient><linearGradient
       id="linearGradient2"><stop
         style="stop-color:#ffffff;stop-opacity:1;"
         offset="0"
         id="stop2" /></linearGradient><linearGradient
       id="swatch1"><stop
         style="stop-color:#01a9c6;stop-opacity:1;"
         offset="0"
         id="stop1" /></linearGradient><linearGradient
       id="swatch15"><stop
         style="stop-color:#ffffff;stop-opacity:1;"
         offset="0"
         id="stop15" /></linearGradient><linearGradient
       xlink:href="#linearGradient3"
       id="linearGradient15"
       x1="50.889656"
       y1="160.55443"
       x2="109.71423"
       y2="160.55443"
       gradientUnits="userSpaceOnUse"
       gradientTransform="translate(-50.889656,-116.75843)" /><linearGradient
       xlink:href="#linearGradient2"
       id="linearGradient16"
       x1="76.402718"
       y1="182.31171"
       x2="144.4567"
       y2="182.31171"
       gradientUnits="userSpaceOnUse"
       gradientTransform="matrix(1.010015,0,0,0.84043736,-52.854524,-91.5641)" /><linearGradient
       xlink:href="#swatch15"
       id="linearGradient17"
       x1="128.60709"
       y1="140.99667"
       x2="150.89626"
       y2="140.99667"
       gradientUnits="userSpaceOnUse"
       gradientTransform="translate(-53.947833,-113.70025)" /><linearGradient
       xlink:href="#linearGradient20"
       id="linearGradient1"
       x1="1.0000021"
       y1="12"
       x2="22.999998"
       y2="12"
       gradientUnits="userSpaceOnUse" /><linearGradient
       xlink:href="#linearGradient32"
       id="linearGradient21"
       gradientUnits="userSpaceOnUse"
       x1="55.862015"
       y1="142.37979"
       x2="105.33412"
       y2="142.37979" /><linearGradient
       xlink:href="#swatch20"
       id="linearGradient22"
       gradientUnits="userSpaceOnUse"
       x1="55.862015"
       y1="142.37979"
       x2="105.33412"
       y2="142.37979" /><linearGradient
       xlink:href="#swatch13"
       id="linearGradient23"
       gradientUnits="userSpaceOnUse"
       x1="55.862015"
       y1="142.37979"
       x2="105.33412"
       y2="142.37979" /><linearGradient
       xlink:href="#swatch13"
       id="linearGradient24"
       gradientUnits="userSpaceOnUse"
       x1="55.862015"
       y1="142.37979"
       x2="105.33412"
       y2="142.37979" /><linearGradient
       xlink:href="#swatch13"
       id="linearGradient25"
       gradientUnits="userSpaceOnUse"
       x1="55.862015"
       y1="142.37979"
       x2="105.33412"
       y2="142.37979" /><linearGradient
       xlink:href="#swatch13"
       id="linearGradient26"
       gradientUnits="userSpaceOnUse"
       x1="55.862015"
       y1="142.37979"
       x2="105.33412"
       y2="142.37979" /><linearGradient
       xlink:href="#swatch13"
       id="linearGradient27"
       gradientUnits="userSpaceOnUse"
       x1="55.862015"
       y1="142.37979"
       x2="105.33412"
       y2="142.37979" /><linearGradient
       xlink:href="#swatch13"
       id="linearGradient28"
       gradientUnits="userSpaceOnUse"
       x1="55.862015"
       y1="142.37979"
       x2="105.33412"
       y2="142.37979" /><linearGradient
       xlink:href="#swatch13"
       id="linearGradient29"
       gradientUnits="userSpaceOnUse"
       x1="55.862015"
       y1="142.37979"
       x2="105.33412"
       y2="142.37979" /><linearGradient
       xlink:href="#linearGradient31"
       id="linearGradient30"
       gradientUnits="userSpaceOnUse"
       x1="55.862015"
       y1="142.37979"
       x2="105.33412"
       y2="142.37979" /><linearGradient
       xlink:href="#swatch13"
       id="linearGradient27-9"
       gradientUnits="userSpaceOnUse"
       x1="55.862015"
       y1="142.37979"
       x2="105.33412"
       y2="142.37979"
       gradientTransform="matrix(1.1320703,0,0,0.6897849,-11.070814,5.1324939)" /><linearGradient
       xlink:href="#swatch13"
       id="linearGradient4"
       x1="10.999984"
       y1="11.993421"
       x2="22.980568"
       y2="11.993421"
       gradientUnits="userSpaceOnUse" /><linearGradient
       xlink:href="#swatch13"
       id="linearGradient5"
       x1="16.599001"
       y1="5.8125"
       x2="18.997999"
       y2="5.8125"
       gradientUnits="userSpaceOnUse" /><linearGradient
       xlink:href="#swatch13"
       id="linearGradient6"
       x1="18.938"
       y1="10.698"
       x2="21.523001"
       y2="10.698"
       gradientUnits="userSpaceOnUse" /><linearGradient
       xlink:href="#swatch13"
       id="linearGradient7"
       x1="17"
       y1="17.742001"
       x2="20.966999"
       y2="17.742001"
       gradientUnits="userSpaceOnUse" /><linearGradient
       xlink:href="#swatch13"
       id="linearGradient8"
       x1="10.616727"
       y1="12.511813"
       x2="13.046338"
       y2="12.511813"
       gradientUnits="userSpaceOnUse" /><linearGradient
       xlink:href="#swatch13"
       id="linearGradient9"
       x1="8"
       y1="11.000853"
       x2="16"
       y2="11.000853"
       gradientUnits="userSpaceOnUse" /><linearGradient
       xlink:href="#swatch13"
       id="linearGradient10"
       x1="5.0029998"
       y1="5.8125"
       x2="7.401"
       y2="5.8125"
       gradientUnits="userSpaceOnUse" /><linearGradient
       xlink:href="#swatch13"
       id="linearGradient11"
       x1="1.0194323"
       y1="11.993421"
       x2="13.000016"
       y2="11.993421"
       gradientUnits="userSpaceOnUse" /><linearGradient
       xlink:href="#swatch13"
       id="linearGradient12"
       x1="3.033"
       y1="17.742001"
       x2="7"
       y2="17.742001"
       gradientUnits="userSpaceOnUse" /><linearGradient
       xlink:href="#swatch13"
       id="linearGradient18"
       x1="2.477"
       y1="10.698"
       x2="5.0619998"
       y2="10.698"
       gradientUnits="userSpaceOnUse" /><linearGradient
       xlink:href="#swatch13"
       id="linearGradient13"
       gradientUnits="userSpaceOnUse"
       x1="1.0000021"
       y1="12"
       x2="22.999998"
       y2="12" /><linearGradient
       xlink:href="#swatch13"
       id="linearGradient14"
       gradientUnits="userSpaceOnUse"
       x1="1.0000021"
       y1="12"
       x2="22.999998"
       y2="12" /><linearGradient
       xlink:href="#swatch13"
       id="linearGradient19"
       gradientUnits="userSpaceOnUse"
       x1="1.0000021"
       y1="12"
       x2="22.999998"
       y2="12" /><linearGradient
       inkscape:collect="always"
       xlink:href="#swatch20"
       id="linearGradient33"
       gradientUnits="userSpaceOnUse"
       x1="55.862015"
       y1="142.37979"
       x2="105.33412"
       y2="142.37979" /></defs><path
     d="M 65.111882,47.935274 V 11.829246 c 0,-3.3234688 2.734576,-6.0176719 6.107846,-6.0176719 h 30.539232 c 1.34931,0 2.44314,1.0776808 2.44314,2.4070663 V 51.545877 c 0,1.329388 -1.33663,2.164268 -2.68594,2.164268 h -9.457531 m -13.165276,0.255563 -7.673625,-0.01276 c -8.14378,-0.01348 -8.143791,-12.035344 0,-12.035344 h 7.550159 m 13.229166,0 H 104.2021"
     id="path1"
     style="fill:none;fill-rule:evenodd;stroke:#fffefe;stroke-width:4.85007;stroke-linecap:round;stroke-linejoin:round;stroke-opacity:1" /><path
     d="m 16.102174,21.971448 h -4.4367 a 8.8734074,7.2748508 0 0 0 -8.8734098,7.27486 v 14.5497 a 26.620227,21.824558 0 0 0 53.2404498,0 v -14.5497 a 8.8734074,7.2748508 0 0 0 -8.87341,-7.27486 h -4.43671"
     id="path3-5"
     style="fill:none;stroke:url(#linearGradient15);stroke-width:5.584;stroke-linecap:round;stroke-linejoin:round;stroke-dasharray:none" /><g
     style="fill:url(#linearGradient30);fill-opacity:1;stroke:#ffffff;stroke-width:2;stroke-linecap:round;stroke-linejoin:round;stroke-opacity:1"
     id="g3"
     transform="matrix(2.2527118,0,0,2.3287153,2.67587,-2.3079)"><path
       d="M 12,5 A 3,3 0 1 0 6.003,5.125 4,4 0 0 0 3.477,10.895 4,4 0 0 0 4.033,17.483 4,4 0 1 0 12,18 Z"
       id="path1-0"
       style="fill:url(#linearGradient21);fill-opacity:1;stroke:#ffffff;stroke-opacity:1" /><path
       d="m 12,5 a 3,3 0 1 1 5.997,0.125 4,4 0 0 1 2.526,5.77 4,4 0 0 1 -0.556,6.588 A 4,4 0 1 1 12,18 Z"
       id="path2"
       style="fill:url(#linearGradient33);fill-opacity:1;stroke:#ffffff;stroke-opacity:1" /><path
       d="M 15,13 A 4.5,4.5 0 0 1 12,9 4.5,4.5 0 0 1 9,13"
       id="path3"
       style="fill:url(#linearGradient23);fill-opacity:1;stroke:#ffffff;stroke-opacity:1" /><path
       d="M 17.599,6.5 A 3,3 0 0 0 17.998,5.125"
       id="path4"
       style="fill:url(#linearGradient24);fill-opacity:1;stroke:#ffffff;stroke-opacity:1" /><path
       d="M 6.003,5.125 A 3,3 0 0 0 6.401,6.5"
       id="path5"
       style="fill:url(#linearGradient25);fill-opacity:1;stroke:#ffffff;stroke-opacity:1" /><path
       d="M 3.477,10.896 A 4,4 0 0 1 4.062,10.5"
       id="path6"
       style="fill:url(#linearGradient26);fill-opacity:1;stroke:#ffffff;stroke-opacity:1" /><path
       d="m 19.938,10.5 a 4,4 0 0 1 0.585,0.396"
       id="path7"
       style="fill:url(#linearGradient27);fill-opacity:1;stroke:#ffffff;stroke-opacity:1" /><path
       d="m 11.500402,12.375236 a 4.5282811,2.7591395 0 0 1 0.662261,0.273154"
       id="path7-9"
       style="fill:url(#linearGradient27-9);fill-opacity:1;stroke:#ffffff;stroke-width:1.76735;stroke-linecap:round;stroke-linejoin:round;stroke-opacity:1" /><path
       d="M 6,18 A 4,4 0 0 1 4.033,17.484"
       id="path8"
       style="fill:url(#linearGradient28);fill-opacity:1;stroke:#ffffff;stroke-opacity:1" /><path
       d="M 19.967,17.484 A 4,4 0 0 1 18,18"
       id="path9"
       style="fill:url(#linearGradient29);fill-opacity:1;stroke:#ffffff;stroke-opacity:1" /></g><path
     d="m 28.459702,66.628799 c 0.474485,23.337659 -2.167812,21.465697 10.64032,21.387974 m 36.64125,-0.368591 c 12.335066,-0.07488 9.625281,2.729546 9.629785,-22.101256 l -0.03161,-29.791921"
     id="path4-7"
     style="fill:none;stroke:url(#linearGradient16);stroke-width:6.7675;stroke-linecap:round;stroke-linejoin:round" /><ellipse
     cx="85.803833"
     cy="27.296421"
     id="circle4-8"
     style="fill:none;stroke:url(#linearGradient17);stroke-width:7.5491;stroke-linecap:round;stroke-linejoin:round"
     rx="7.370038"
     ry="7.7325048" /><g
     style="fill:none;stroke:#fffefe;stroke-width:2;stroke-linecap:round;stroke-linejoin:round;stroke-opacity:1"
     id="g18"
     transform="matrix(1.6452014,0,0,1.2936844,37.582818,72.230063)"><path
       d="M 9,17 H 7 A 5,5 0 0 1 7,7 h 2"
       id="path1-8"
       style="stroke:#fffefe;stroke-opacity:1" /><path
       d="m 15,7 h 2 a 5,5 0 1 1 0,10 h -2"
       id="path2-2"
       style="stroke:#fffefe;stroke-opacity:1" /><line
       x1="8"
       x2="16"
       y1="12"
       y2="12"
       id="line2"
       style="stroke:#fffefe;stroke-opacity:1" /></g></svg>
